<?xml version="1.0" standalone="no"?><!DOCTYPE svg PUBLIC "-//W3C//DTD SVG 1.1//EN" "http://www.w3.org/Graphics/SVG/1.1/DTD/svg11.dtd"><svg height="400" node-id="1" sillyvg="true" template-height="400" template-width="400" version="1.1" viewBox="0 0 400 400" width="400" xmlns="http://www.w3.org/2000/svg" xmlns:xlink="http://www.w3.org/1999/xlink"><defs node-id="107"><linearGradient gradientUnits="objectBoundingBox" id="未命名的渐变_23" node-id="5" spreadMethod="pad" x1="58.66" x2="179.68" y1="50.89" y2="50.89"><stop offset="0" stop-color="#f0eff2"></stop><stop offset="1" stop-color="#b5b4ba"></stop></linearGradient><linearGradient gradientUnits="objectBoundingBox" id="未命名的渐变_33" node-id="8" spreadMethod="pad" x1="211.29" x2="196.65" y1="174.23" y2="421.8"><stop offset="0" stop-color="#f0eff2"></stop><stop offset="0.01" stop-color="#edecef" stop-opacity="0.95"></stop><stop offset="0.08" stop-color="#e1e0e4" stop-opacity="0.75"></stop><stop offset="0.16" stop-color="#d7d6da" stop-opacity="0.57"></stop><stop offset="0.23" stop-color="#cecdd1" stop-opacity="0.42"></stop><stop offset="0.32" stop-color="#c6c5ca" stop-opacity="0.29"></stop><stop offset="0.4" stop-color="#c0bfc4" stop-opacity="0.18"></stop><stop offset="0.5" stop-color="#bbbac0" stop-opacity="0.1"></stop><stop offset="0.62" stop-color="#b8b7bc" stop-opacity="0.04"></stop><stop offset="0.75" stop-color="#b6b5bb" stop-opacity="0.01"></stop><stop offset="1" stop-color="#b5b4ba" stop-opacity="0"></stop></linearGradient><linearGradient gradientUnits="objectBoundingBox" id="未命名的渐变_23-2" node-id="20" spreadMethod="pad" x1="200.3" x2="196.51" y1="188.66" y2="198.12"><stop offset="0" stop-color="#f0eff2"></stop><stop offset="1" stop-color="#b5b4ba"></stop></linearGradient><linearGradient gradientUnits="objectBoundingBox" id="未命名的渐变_23-3" node-id="21" spreadMethod="pad" x1="171.28" x2="162.77" y1="180.35" y2="182.95"><stop offset="0" stop-color="#f0eff2"></stop><stop offset="1" stop-color="#b5b4ba"></stop></linearGradient><linearGradient gradientUnits="objectBoundingBox" id="未命名的渐变_23-4" node-id="22" spreadMethod="pad" x1="235.45" x2="222.45" y1="178.96" y2="180.38"><stop offset="0" stop-color="#f0eff2"></stop><stop offset="1" stop-color="#b5b4ba"></stop></linearGradient><linearGradient gradientUnits="objectBoundingBox" id="未命名的渐变_23-5" node-id="23" spreadMethod="pad" x1="199.28" x2="202.35" y1="213.12" y2="221.87"><stop offset="0" stop-color="#f0eff2"></stop><stop offset="1" stop-color="#b5b4ba"></stop></linearGradient><linearGradient gradientUnits="objectBoundingBox" id="未命名的渐变_23-6" node-id="24" spreadMethod="pad" x1="149.75" x2="144.55" y1="205.4" y2="216.51"><stop offset="0" stop-color="#f0eff2"></stop><stop offset="1" stop-color="#b5b4ba"></stop></linearGradient><linearGradient gradientUnits="objectBoundingBox" id="未命名的渐变_13" node-id="25" spreadMethod="pad" x1="350.65" x2="303.71" y1="193.32" y2="241.25"><stop offset="0" stop-color="#f0eff2"></stop><stop offset="1" stop-color="#c6c5cc"></stop></linearGradient><linearGradient gradientUnits="objectBoundingBox" id="未命名的渐变_13-2" node-id="28" spreadMethod="pad" x1="330.56" x2="329.69" y1="220.89" y2="223.37"><stop offset="0" stop-color="#f0eff2"></stop><stop offset="1" stop-color="#c6c5cc"></stop></linearGradient><linearGradient gradientUnits="objectBoundingBox" id="未命名的渐变_13-3" node-id="29" spreadMethod="pad" x1="329.1" x2="327.12" y1="238.12" y2="237.74"><stop offset="0" stop-color="#f0eff2"></stop><stop offset="1" stop-color="#c6c5cc"></stop></linearGradient><linearGradient gradientUnits="objectBoundingBox" id="未命名的渐变_13-4" node-id="30" spreadMethod="pad" x1="102.63" x2="59.17" y1="202.05" y2="233.21"><stop offset="0" stop-color="#f0eff2"></stop><stop offset="1" stop-color="#c6c5cc"></stop></linearGradient><linearGradient gradientUnits="objectBoundingBox" id="未命名的渐变_13-5" node-id="31" spreadMethod="pad" x1="80.26" x2="79.69" y1="222.37" y2="223.98"><stop offset="0" stop-color="#f0eff2"></stop><stop offset="1" stop-color="#c6c5cc"></stop></linearGradient><linearGradient gradientUnits="objectBoundingBox" id="未命名的渐变_13-6" node-id="32" spreadMethod="pad" x1="79.31" x2="78.02" y1="233.56" y2="233.32"><stop offset="0" stop-color="#f0eff2"></stop><stop offset="1" stop-color="#c6c5cc"></stop></linearGradient><linearGradient gradientUnits="objectBoundingBox" id="未命名的渐变_13-7" node-id="33" spreadMethod="pad" x1="66.55" x2="45.44" y1="217.97" y2="239.66"><stop offset="0" stop-color="#f0eff2"></stop><stop offset="1" stop-color="#c6c5cc"></stop></linearGradient><linearGradient gradientUnits="objectBoundingBox" id="未命名的渐变_13-8" node-id="34" spreadMethod="pad" x1="56.65" x2="56.28" y1="231.09" y2="232.13"><stop offset="0" stop-color="#f0eff2"></stop><stop offset="1" stop-color="#c6c5cc"></stop></linearGradient><linearGradient gradientUnits="objectBoundingBox" id="未命名的渐变_13-9" node-id="35" spreadMethod="pad" x1="56.04" x2="55.21" y1="238.3" y2="238.15"><stop offset="0" stop-color="#f0eff2"></stop><stop offset="1" stop-color="#c6c5cc"></stop></linearGradient><linearGradient gradientUnits="objectBoundingBox" id="未命名的渐变_37" node-id="36" spreadMethod="pad" x1="272.11" x2="272.53" y1="167.59" y2="179.93"><stop offset="0" stop-color="#f0eff2"></stop><stop offset="1" stop-color="#c6c5cc" stop-opacity="0"></stop></linearGradient><linearGradient gradientUnits="objectBoundingBox" id="未命名的渐变_37-2" node-id="39" spreadMethod="pad" x1="280.43" x2="280.6" y1="176.13" y2="181.1"><stop offset="0" stop-color="#f0eff2"></stop><stop offset="1" stop-color="#c6c5cc" stop-opacity="0"></stop></linearGradient><linearGradient gradientUnits="objectBoundingBox" id="未命名的渐变_13-10" node-id="40" spreadMethod="pad" x1="215.25" x2="226.69" y1="174.96" y2="-49.04"><stop offset="0" stop-color="#f0eff2"></stop><stop offset="1" stop-color="#c6c5cc"></stop></linearGradient><linearGradient gradientUnits="objectBoundingBox" id="未命名的渐变_13-11" node-id="41" spreadMethod="pad" x1="232.82" x2="244.17" y1="171.15" y2="-51.26"><stop offset="0" stop-color="#f0eff2"></stop><stop offset="1" stop-color="#c6c5cc"></stop></linearGradient><linearGradient gradientUnits="objectBoundingBox" id="未命名的渐变_13-12" node-id="42" spreadMethod="pad" x1="196.55" x2="207.98" y1="178.56" y2="-45.33"><stop offset="0" stop-color="#f0eff2"></stop><stop offset="1" stop-color="#c6c5cc"></stop></linearGradient><linearGradient gradientUnits="objectBoundingBox" id="未命名的渐变_13-13" node-id="43" spreadMethod="pad" x1="250.58" x2="262.18" y1="168.42" y2="-58.7"><stop offset="0" stop-color="#f0eff2"></stop><stop offset="1" stop-color="#c6c5cc"></stop></linearGradient><linearGradient gradientUnits="objectBoundingBox" id="未命名的渐变_13-14" node-id="44" spreadMethod="pad" x1="157.25" x2="175.83" y1="115.64" y2="116.45"><stop offset="0" stop-color="#f0eff2"></stop><stop offset="1" stop-color="#c6c5cc"></stop></linearGradient><linearGradient gradientUnits="objectBoundingBox" id="未命名的渐变_13-15" node-id="45" spreadMethod="pad" x1="139.11" x2="156.02" y1="110.43" y2="111.17"><stop offset="0" stop-color="#f0eff2"></stop><stop offset="1" stop-color="#c6c5cc"></stop></linearGradient><linearGradient gradientUnits="objectBoundingBox" id="未命名的渐变_13-16" node-id="46" spreadMethod="pad" x1="177.07" x2="192.4" y1="120.52" y2="121.19"><stop offset="0" stop-color="#f0eff2"></stop><stop offset="1" stop-color="#c6c5cc"></stop></linearGradient><linearGradient gradientUnits="objectBoundingBox" id="未命名的渐变_13-17" node-id="47" spreadMethod="pad" x1="111.36" x2="137.14" y1="104.28" y2="105.4"><stop offset="0" stop-color="#f0eff2"></stop><stop offset="1" stop-color="#c6c5cc"></stop></linearGradient></defs><path d="M 116.60 78.20 L 115.10 77.60 L 114.40 76.20 L 114.90 71.20 L 114.10 67.20 L 113.30 65.30 L 110.10 60.90 L 107.40 58.50 L 103.90 56.30 L 99.50 54.30 L 95.10 52.70 L 90.00 51.40 L 84.10 50.40 L 69.30 48.60 L 66.60 47.80 L 64.00 46.40 L 63.60 45.70 L 63.30 43.70 L 64.30 42.10 L 65.90 41.10 L 69.10 39.80 L 73.00 38.80 L 79.40 37.40 L 103.90 34.50 L 126.90 32.80 L 134.90 32.50 L 141.20 32.70 L 150.00 34.00 L 155.30 35.30 L 160.60 37.10 L 166.20 39.70 L 169.70 41.80 L 173.20 44.40 L 176.60 47.30 L 179.60 50.70 L 182.40 54.50 L 185.00 59.00 L 185.20 59.80 L 184.60 61.30 L 183.20 62.00 L 181.70 61.50 L 181.20 60.90 L 178.90 56.80 L 176.30 53.30 L 173.40 50.30 L 167.00 45.30 L 163.70 43.30 L 158.50 41.00 L 153.50 39.30 L 144.40 37.40 L 135.10 36.80 L 107.60 38.50 L 80.20 41.70 L 69.50 44.20 L 85.70 46.30 L 92.60 47.70 L 98.50 49.30 L 103.40 51.30 L 107.50 53.50 L 110.80 55.80 L 113.60 58.40 L 115.80 61.20 L 118.20 66.10 L 119.10 71.40 L 119.00 74.00 L 118.20 77.30 L 116.60 78.20 Z" fill="url(#未命名的渐变_23)" fill-rule="nonzero" node-id="284" stroke="none" target-height="45.699997" target-width="121.899994" target-x="63.3" target-y="32.5"></path><path d="M 205.20 61.00 L 205.20 158.90 L 191.80 161.50 L 191.80 59.40 L 205.20 61.00 Z" fill="#c6c5cc" fill-rule="nonzero" node-id="286" stroke="none" target-height="102.1" target-width="13.399994" target-x="191.8" target-y="59.4"></path><path d="M 224.80 63.50 L 224.80 155.20 L 208.50 158.30 L 208.50 61.40 L 224.80 63.50 Z" fill="#c6c5cc" fill-rule="nonzero" node-id="288" stroke="none" target-height="96.9" target-width="16.300003" target-x="208.5" target-y="61.4"></path><path d="M 241.10 65.50 L 241.10 152.00 L 228.10 154.50 L 228.10 63.90 L 241.10 65.50 Z" fill="#c6c5cc" fill-rule="nonzero" node-id="290" stroke="none" target-height="90.6" target-width="13" target-x="228.1" target-y="63.9"></path><path d="M 265.60 68.60 L 249.80 150.30 L 244.40 151.40 L 244.40 65.90 L 265.60 68.60 Z" fill="#c6c5cc" fill-rule="nonzero" node-id="292" stroke="none" target-height="85.49999" target-width="21.200012" target-x="244.4" target-y="65.9"></path><path d="M 139.00 64.30 L 139.00 143.60 L 132.20 141.30 L 112.80 66.70 L 139.00 64.30 Z" fill="#c6c5cc" fill-rule="nonzero" node-id="294" stroke="none" target-height="79.3" target-width="26.199997" target-x="112.8" target-y="64.3"></path><path d="M 157.20 62.60 L 157.20 149.80 L 142.30 144.70 L 142.30 64.00 L 157.20 62.60 Z" fill="#c6c5cc" fill-rule="nonzero" node-id="296" stroke="none" target-height="87.200005" target-width="14.899994" target-x="142.3" target-y="62.6"></path><path d="M 176.80 60.80 L 176.80 156.40 L 160.50 150.90 L 160.50 62.30 L 176.80 60.80 Z" fill="#c6c5cc" fill-rule="nonzero" node-id="298" stroke="none" target-height="95.59999" target-width="16.300003" target-x="160.5" target-y="60.8"></path><path d="M 191.80 59.40 L 191.80 161.50 L 180.00 157.50 L 180.00 60.50 L 191.80 59.40 Z" fill="#c6c5cc" fill-rule="nonzero" node-id="300" stroke="none" target-height="102.1" target-width="11.800003" target-x="180" target-y="59.4"></path><path d="M 2.30 365.40 L 2.60 356.70 L 3.30 348.30 L 4.50 339.90 L 6.00 331.80 L 7.90 323.70 L 10.90 313.80 L 14.40 304.10 L 18.40 294.70 L 23.10 285.50 L 28.20 276.60 L 33.80 268.00 L 39.90 259.80 L 46.50 251.80 L 53.50 244.20 L 60.90 237.00 L 68.80 230.20 L 77.10 223.70 L 85.70 217.70 L 94.60 212.20 L 103.90 207.00 L 113.60 202.40 L 123.50 198.20 L 133.70 194.50 L 144.20 191.40 L 155.00 188.70 L 165.90 186.70 L 177.00 185.20 L 188.40 184.30 L 200.00 183.90 L 211.70 184.30 L 223.20 185.20 L 234.40 186.70 L 245.30 188.80 L 256.20 191.50 L 266.80 194.70 L 277.00 198.40 L 287.00 202.60 L 296.70 207.40 L 306.10 212.60 L 315.00 218.20 L 323.70 224.30 L 332.00 230.80 L 339.90 237.70 L 347.30 245.00 L 354.30 252.70 L 360.90 260.80 L 367.00 269.10 L 372.60 277.80 L 377.60 286.80 L 382.20 296.10 L 386.20 305.60 L 389.60 315.40 L 392.50 325.40 L 394.40 333.60 L 395.80 341.80 L 396.90 350.30 L 397.50 358.80 L 397.80 367.50" fill="url(#未命名的渐变_33)" fill-rule="nonzero" node-id="302" stroke="none" target-height="183.6" target-width="395.5" target-x="2.3" target-y="183.9"></path><path d="M 211.70 250.60 L 211.50 252.90 L 210.20 257.50 L 207.70 261.50 L 206.00 263.30 L 202.00 266.10 L 199.70 267.20 L 194.90 268.40 L 192.30 268.60 L 189.70 268.40 L 184.90 267.20 L 182.60 266.10 L 178.60 263.30 L 175.50 259.50 L 173.60 255.20 L 173.10 252.90 L 173.00 250.60 L 173.30 247.30 L 174.20 244.30 L 175.60 241.50 L 177.50 239.00 L 179.80 236.80 L 182.50 235.00 L 185.50 233.70 L 188.80 232.90 L 192.30 232.60 L 195.90 232.90 L 199.10 233.70 L 202.10 235.00 L 204.80 236.80 L 207.10 239.00 L 209.00 241.50 L 210.50 244.30 L 211.30 247.30 L 211.70 250.60 Z" fill="#c4c4c4" fill-rule="nonzero" node-id="304" stroke="none" target-height="36" target-width="38.699997" target-x="173" target-y="232.6"></path><path d="M 282.30 214.90 L 282.00 217.10 L 281.30 219.20 L 280.20 221.10 L 277.00 224.20 L 272.70 226.30 L 267.50 227.10 L 262.30 226.30 L 257.90 224.20 L 254.70 221.10 L 253.60 219.20 L 252.90 217.10 L 252.70 214.90 L 252.90 212.70 L 253.60 210.70 L 254.70 208.80 L 257.90 205.70 L 262.30 203.60 L 267.50 202.80 L 272.70 203.60 L 277.00 205.70 L 280.20 208.80 L 281.30 210.70 L 282.00 212.70 L 282.30 214.90 Z" fill="#cecece" fill-rule="nonzero" node-id="306" stroke="none" target-height="24.300003" target-width="29.59999" target-x="252.7" target-y="202.8"></path><path d="M 174.80 198.70 L 179.10 198.00 L 181.00 197.20 L 184.10 194.80 L 186.20 191.70 L 186.80 189.90 L 187.00 187.90 L 186.30 184.40 L 178.40 185.00 L 162.60 187.20 L 162.80 189.90 L 163.40 191.70 L 165.50 194.80 L 168.60 197.20 L 170.50 198.00 L 174.80 198.70 Z" fill="#cecece" fill-rule="nonzero" node-id="308" stroke="none" target-height="14.300003" target-width="24.399994" target-x="162.6" target-y="184.4"></path><path d="M 106.10 237.40 L 110.10 237.10 L 113.80 236.40 L 117.30 235.30 L 120.70 233.70 L 123.70 231.80 L 126.50 229.50 L 128.90 227.00 L 130.90 224.10 L 132.60 221.00 L 133.90 217.80 L 134.60 214.30 L 134.90 210.70 L 134.60 206.70 L 133.60 202.80 L 132.10 199.20 L 130.00 195.80 L 121.20 199.10 L 112.50 202.80 L 104.10 207.00 L 95.80 211.50 L 87.70 216.40 L 79.90 221.70 L 81.60 224.60 L 83.70 227.40 L 86.10 229.80 L 88.90 232.00 L 91.90 233.80 L 95.20 235.30 L 98.60 236.40 L 102.30 237.10 L 106.10 237.40 Z" fill="#cecece" fill-rule="nonzero" node-id="310" stroke="none" target-height="41.59999" target-width="54.999992" target-x="79.9" target-y="195.8"></path><path d="M 113.80 295.70 L 113.50 298.30 L 112.70 300.80 L 111.40 303.10 L 109.60 305.10 L 107.40 306.80 L 104.90 308.00 L 102.30 308.70 L 99.50 309.00 L 96.60 308.70 L 94.00 308.00 L 91.50 306.80 L 89.30 305.10 L 87.50 303.10 L 86.20 300.80 L 85.40 298.30 L 85.10 295.70 L 85.40 293.10 L 86.20 290.60 L 87.50 288.30 L 89.30 286.30 L 91.50 284.60 L 94.00 283.40 L 96.60 282.60 L 99.50 282.40 L 102.30 282.60 L 104.90 283.40 L 107.40 284.60 L 109.60 286.30 L 111.40 288.30 L 112.70 290.60 L 113.50 293.10 L 113.80 295.70 Z" fill="#eaeaea" fill-rule="nonzero" node-id="312" stroke="none" target-height="26.600006" target-width="28.700005" target-x="85.1" target-y="282.4"></path><path d="M 299.90 314.00 L 299.60 316.10 L 298.70 318.00 L 297.40 319.60 L 295.60 320.90 L 293.60 321.70 L 291.30 322.00 L 289.00 321.70 L 287.00 320.90 L 285.20 319.60 L 283.90 318.00 L 283.00 316.10 L 282.70 314.00 L 283.00 311.90 L 283.90 310.00 L 285.20 308.40 L 287.00 307.10 L 289.00 306.30 L 291.30 306.00 L 293.60 306.30 L 295.60 307.10 L 297.40 308.40 L 298.70 310.00 L 299.60 311.90 L 299.90 314.00 Z" fill="#eaeaea" fill-rule="nonzero" node-id="314" stroke="none" target-height="16" target-width="17.199982" target-x="282.7" target-y="306"></path><g node-id="432"><path d="M 180.60 181.20 L 180.60 183.90 L 179.40 188.80 L 178.30 190.90 L 176.80 192.80 L 175.20 194.10 L 173.40 194.90 L 171.60 195.30 L 169.60 195.10 L 167.80 194.40 L 166.10 193.30 L 164.50 191.60 L 163.10 189.60 L 161.40 184.80 L 161.20 179.50 L 162.40 174.50 L 163.50 172.40 L 164.90 170.60 L 166.50 169.30 L 168.30 168.40 L 170.20 168.10 L 172.10 168.20 L 174.00 168.90 L 175.70 170.00 L 177.30 171.70 L 178.60 173.70 L 179.60 176.00 L 180.60 181.20 Z" fill="#bdbdc1" fill-rule="nonzero" group-id="1" node-id="318" stroke="none" target-height="27.199997" target-width="19.40001" target-x="161.2" target-y="168.1"></path></g><g node-id="433"><path d="M 174.70 182.00 L 174.60 185.70 L 173.20 190.90 L 171.40 193.90 L 168.90 195.70 L 167.50 196.00 L 166.10 195.80 L 163.40 194.30 L 161.30 191.50 L 159.40 186.40 L 158.90 182.80 L 159.00 179.10 L 159.70 175.80 L 160.40 173.80 L 162.20 170.80 L 164.70 169.00 L 166.10 168.80 L 167.50 168.90 L 168.90 169.40 L 171.30 171.70 L 173.30 175.20 L 174.20 178.30 L 174.70 182.00 Z" fill="#e2e1e4" fill-rule="nonzero" group-id="2" node-id="323" stroke="none" target-height="27.199997" target-width="15.800003" target-x="158.9" target-y="168.8"></path></g><path d="M 174.50 182.50 L 170.90 182.90 L 167.30 182.40 L 171.20 178.10 L 173.00 175.00 L 171.70 172.50 L 171.30 174.80 L 170.20 177.50 L 166.90 181.80 L 165.70 176.10 L 164.30 173.10 L 162.50 170.60 L 161.50 171.80 L 163.30 173.80 L 164.80 176.50 L 165.80 179.40 L 166.30 182.10 L 162.40 181.40 L 158.80 181.40 L 158.80 182.30 L 162.30 182.00 L 166.30 182.60 L 162.70 186.40 L 160.50 190.20 L 161.40 191.70 L 163.50 186.90 L 166.30 183.20 L 166.30 186.30 L 166.80 191.20 L 167.90 194.40 L 168.90 195.60 L 170.00 195.00 L 168.90 193.90 L 167.70 191.00 L 167.00 186.20 L 167.00 182.70 L 168.80 183.20 L 172.90 183.50 L 174.40 183.40 L 174.50 182.50 Z" fill="#d8d8d8" fill-rule="nonzero" node-id="326" stroke="none" target-height="25" target-width="15.699997" target-x="158.8" target-y="170.6"></path><g node-id="434"><path d="M 169.00 182.20 L 168.90 184.10 L 168.50 185.60 L 167.70 186.80 L 166.80 187.10 L 165.90 186.80 L 165.00 185.80 L 164.40 184.40 L 164.10 182.40 L 164.20 180.50 L 164.60 179.00 L 165.40 177.90 L 166.30 177.50 L 167.20 177.80 L 168.10 178.80 L 169.00 182.20 Z" fill="#c6c5cc" fill-rule="nonzero" group-id="3" node-id="330" stroke="none" target-height="9.600006" target-width="4.899994" target-x="164.1" target-y="177.5"></path></g><g node-id="435"><path d="M 261.70 204.90 L 261.70 208.70 L 261.20 212.20 L 260.40 215.40 L 259.20 218.40 L 257.70 220.90 L 255.90 222.90 L 253.90 224.60 L 251.70 225.60 L 249.30 226.10 L 246.80 225.90 L 244.50 225.10 L 242.30 223.60 L 240.40 221.80 L 238.60 219.40 L 237.10 216.50 L 235.90 213.50 L 235.10 210.10 L 234.70 206.30 L 234.80 202.50 L 235.20 199.00 L 236.00 195.90 L 237.30 192.80 L 238.80 190.30 L 240.50 188.30 L 242.60 186.60 L 244.80 185.60 L 247.20 185.10 L 249.60 185.30 L 251.90 186.10 L 254.20 187.60 L 256.10 189.50 L 257.80 191.80 L 259.40 194.70 L 260.50 197.80 L 261.30 201.20 L 261.70 204.90 Z" fill="#bdbdc1" fill-rule="nonzero" group-id="4" node-id="335" stroke="none" target-height="41" target-width="27.000015" target-x="234.7" target-y="185.1"></path></g><g node-id="436"><path d="M 252.80 205.60 L 252.40 212.60 L 250.70 218.60 L 249.50 221.00 L 248.10 223.00 L 246.30 224.60 L 244.50 225.60 L 242.50 226.00 L 240.50 225.80 L 238.50 225.00 L 236.60 223.50 L 235.00 221.70 L 233.50 219.50 L 231.20 213.70 L 230.10 206.70 L 230.50 199.70 L 232.20 193.60 L 233.50 191.20 L 234.90 189.30 L 236.70 187.70 L 238.50 186.70 L 240.50 186.30 L 242.50 186.50 L 244.40 187.30 L 246.30 188.70 L 248.00 190.50 L 249.40 192.80 L 251.70 198.60 L 252.80 205.60 Z" fill="#e2e1e4" fill-rule="nonzero" group-id="5" node-id="340" stroke="none" target-height="39.699997" target-width="22.699997" target-x="230.1" target-y="186.3"></path></g><path d="M 252.90 206.10 L 247.60 206.70 L 244.90 206.50 L 242.40 205.90 L 245.10 203.20 L 248.10 199.70 L 250.40 195.70 L 250.70 195.20 L 248.80 191.50 L 248.20 195.00 L 246.50 198.80 L 244.10 202.40 L 241.80 205.10 L 241.30 201.40 L 240.00 196.90 L 238.10 192.60 L 235.40 188.80 L 234.00 190.60 L 236.60 193.50 L 238.70 197.40 L 240.20 201.70 L 241.00 205.50 L 238.20 204.80 L 235.30 204.50 L 230.20 204.60 L 230.20 206.00 L 235.30 205.40 L 238.10 205.60 L 241.00 206.40 L 235.90 211.90 L 232.60 217.40 L 233.90 219.70 L 235.20 216.10 L 237.00 212.70 L 241.10 207.30 L 241.00 211.90 L 241.80 219.00 L 243.40 223.60 L 244.80 225.40 L 246.40 224.50 L 244.90 222.90 L 243.10 218.70 L 242.10 211.70 L 242.00 206.70 L 247.50 207.70 L 250.70 207.70 L 252.90 207.60 L 252.90 206.10 Z" fill="#d8d8d8" fill-rule="nonzero" node-id="343" stroke="none" target-height="36.59999" target-width="22.699997" target-x="230.2" target-y="188.8"></path><path d="M 241.00 209.60 L 216.20 201.30 L 195.80 195.20 L 176.50 190.10 L 177.50 186.00 L 196.90 191.10 L 217.50 197.30 L 242.40 205.60 Z" fill="url(#未命名的渐变_23-2)" fill-rule="nonzero" node-id="345" stroke="none" target-height="23.600006" target-width="65.899994" target-x="176.5" target-y="186"></path><path d="M 183.10 226.40 L 180.90 214.00 L 178.30 202.10 L 175.40 190.40 L 169.50 170.00 L 160.60 145.00 L 164.60 143.40 L 173.50 168.70 L 179.60 189.30 L 182.50 201.10 L 185.10 213.20 L 187.30 225.80 Z" fill="url(#未命名的渐变_23-3)" fill-rule="nonzero" node-id="347" stroke="none" target-height="83" target-width="26.699997" target-x="160.6" target-y="143.4"></path><path d="M 239.70 208.60 L 238.90 200.60 L 236.50 184.40 L 232.20 163.50 L 229.00 150.60 L 233.10 149.40 L 236.40 162.50 L 240.70 183.70 L 243.10 200.10 L 243.90 208.20 Z" fill="url(#未命名的渐变_23-4)" fill-rule="nonzero" node-id="349" stroke="none" target-height="59.200012" target-width="14.899994" target-x="229" target-y="149.4"></path><path d="M 186.70 228.80 L 185.10 224.80 L 199.10 219.60 L 213.30 215.00 L 227.60 210.80 L 242.00 207.00 L 243.00 211.10 L 228.70 214.90 L 214.60 219.10 L 200.60 223.70 L 186.70 228.80 Z" fill="url(#未命名的渐变_23-5)" fill-rule="nonzero" node-id="351" stroke="none" target-height="21.800003" target-width="57.899994" target-x="185.1" target-y="207"></path><path d="M 184.40 228.80 L 155.70 218.40 L 131.90 210.90 L 133.00 206.80 L 157.00 214.40 L 186.00 224.80 Z" fill="url(#未命名的渐变_23-6)" fill-rule="nonzero" node-id="353" stroke="none" target-height="22" target-width="54.100006" target-x="131.9" target-y="206.8"></path><g node-id="437"><path d="M 205.50 223.60 L 205.50 227.40 L 205.00 230.90 L 204.20 234.00 L 203.00 237.10 L 201.50 239.60 L 199.70 241.60 L 197.60 243.30 L 195.40 244.30 L 193.00 244.80 L 190.60 244.60 L 188.30 243.80 L 186.10 242.30 L 184.10 240.40 L 182.40 238.10 L 180.80 235.20 L 179.70 232.10 L 178.90 228.70 L 178.50 225.00 L 178.50 221.20 L 179.00 217.70 L 179.80 214.50 L 181.00 211.50 L 182.50 209.00 L 184.30 206.90 L 186.40 205.30 L 188.60 204.20 L 191.00 203.80 L 193.40 204.00 L 195.70 204.80 L 197.90 206.20 L 199.90 208.10 L 201.60 210.40 L 203.20 213.30 L 204.30 216.40 L 205.10 219.80 L 205.50 223.60 Z" fill="#bdbdc1" fill-rule="nonzero" group-id="6" node-id="357" stroke="none" target-height="41" target-width="27" target-x="178.5" target-y="203.8"></path></g><g node-id="438"><path d="M 198.20 224.40 L 197.80 231.40 L 196.10 237.40 L 194.90 239.90 L 193.40 241.80 L 191.70 243.40 L 189.80 244.40 L 187.90 244.80 L 185.80 244.60 L 183.90 243.80 L 182.00 242.40 L 180.40 240.60 L 178.90 238.30 L 177.60 235.50 L 175.90 229.20 L 175.60 221.80 L 176.60 215.40 L 177.60 212.50 L 178.90 210.10 L 180.30 208.10 L 182.00 206.50 L 183.90 205.50 L 185.90 205.10 L 187.90 205.30 L 189.80 206.10 L 191.70 207.50 L 193.30 209.30 L 194.80 211.60 L 197.10 217.40 L 198.20 224.40 Z" fill="#e2e1e4" fill-rule="nonzero" group-id="7" node-id="362" stroke="none" target-height="39.699997" target-width="22.59999" target-x="175.6" target-y="205.1"></path></g><g node-id="439"><path d="M 246.20 206.70 L 245.90 209.70 L 245.00 212.30 L 243.90 213.60 L 242.80 214.40 L 241.60 214.70 L 240.30 214.50 L 239.10 213.90 L 238.00 212.60 L 237.30 211.50 L 236.40 208.70 L 236.30 205.70 L 236.90 202.90 L 238.50 200.30 L 239.60 199.60 L 240.80 199.20 L 242.10 199.40 L 243.30 200.10 L 244.40 201.30 L 245.60 203.80 L 246.20 206.70 Z" fill="#c6c5cc" fill-rule="nonzero" group-id="8" node-id="367" stroke="none" target-height="15.5" target-width="9.899994" target-x="236.3" target-y="199.2"></path></g><g node-id="440"><path d="M 136.00 202.00 L 135.50 208.30 L 134.70 211.00 L 133.50 213.60 L 132.10 215.80 L 130.40 217.60 L 128.50 219.00 L 126.40 219.90 L 124.20 220.30 L 121.90 220.20 L 119.70 219.50 L 117.60 218.20 L 115.80 216.60 L 114.20 214.60 L 112.80 212.10 L 111.70 209.50 L 110.60 203.30 L 111.10 197.00 L 111.90 194.20 L 113.00 191.60 L 114.50 189.50 L 116.10 187.70 L 118.00 186.20 L 120.10 185.30 L 122.40 184.90 L 124.70 185.10 L 126.80 185.80 L 128.90 187.00 L 130.70 188.60 L 132.40 190.70 L 133.80 193.20 L 134.90 195.80 L 135.60 198.80 L 136.00 202.00 Z" fill="#bdbdc1" fill-rule="nonzero" group-id="9" node-id="372" stroke="none" target-height="35.40001" target-width="25.400002" target-x="110.6" target-y="184.9"></path></g><g node-id="441"><path d="M 128.30 203.00 L 127.90 209.30 L 126.40 214.70 L 123.90 218.60 L 122.40 220.00 L 120.70 220.90 L 118.90 221.30 L 117.10 221.10 L 115.30 220.40 L 113.60 219.10 L 110.80 215.50 L 109.60 212.90 L 108.10 207.30 L 107.80 200.80 L 108.70 195.10 L 109.60 192.40 L 112.10 188.50 L 113.60 187.10 L 115.30 186.20 L 117.10 185.90 L 118.90 186.00 L 120.70 186.70 L 122.40 188.00 L 123.90 189.60 L 125.20 191.70 L 127.30 196.80 L 128.30 203.00 Z" fill="#e2e1e4" fill-rule="nonzero" group-id="10" node-id="377" stroke="none" target-height="35.40001" target-width="20.5" target-x="107.8" target-y="185.9"></path></g><path d="M 331.80 200.60 L 332.50 197.10 L 332.40 193.20 L 331.90 191.30 L 330.00 188.80 L 327.30 187.60 L 324.90 187.40 L 322.70 187.90 L 320.60 188.80 L 318.80 190.30 L 317.40 192.10 L 316.40 194.30 L 315.50 198.20 L 312.50 221.60 L 311.40 224.30 L 309.10 227.70 L 307.50 229.30 L 304.50 231.50 L 303.90 232.50 L 303.90 233.90 L 304.80 237.00 L 307.20 240.60 L 310.90 243.80 L 313.10 245.10 L 318.40 246.90 L 321.20 247.20 L 324.20 247.10 L 327.60 246.40 L 331.60 245.10 L 334.80 243.60 L 337.30 242.10 L 339.50 240.20 L 341.20 238.20 L 342.40 236.10 L 344.00 231.40 L 344.40 224.60 L 344.10 220.00 L 343.50 217.00 L 342.70 215.20 L 341.60 214.00 L 340.30 213.20 L 335.80 211.70 L 334.40 210.80 L 333.20 209.60 L 332.10 207.40 L 331.50 205.10 L 331.50 202.90 L 331.80 200.60 Z" fill="url(#未命名的渐变_13)" fill-rule="nonzero" node-id="380" stroke="none" target-height="59.800003" target-width="40.5" target-x="303.9" target-y="187.4"></path><path d="M 323.50 235.40 L 326.20 233.20 L 328.30 230.40 L 329.90 227.10 L 330.90 223.60 L 330.30 227.20 L 329.00 230.80 L 327.00 234.00 L 324.20 236.70 Z" fill="url(#未命名的渐变_13-2)" fill-rule="nonzero" node-id="382" stroke="none" target-height="13.099991" target-width="7.399994" target-x="323.5" target-y="223.6"></path><path d="M 323.60 213.60 L 322.60 217.40 L 322.10 221.30 L 322.00 225.30 L 322.40 228.10 L 325.20 236.60 L 326.10 242.70 L 326.20 245.70 L 324.90 260.40 L 323.40 260.50 L 323.40 254.50 L 324.50 244.70 L 324.30 240.90 L 323.80 237.00 L 321.40 228.40 L 321.20 225.30 L 321.40 221.30 L 322.20 217.40 L 323.50 213.50 Z" fill="url(#未命名的渐变_13-3)" fill-rule="nonzero" node-id="384" stroke="none" target-height="47" target-width="5" target-x="321.2" target-y="213.5"></path><path d="M 81.10 209.20 L 81.50 206.10 L 81.40 204.30 L 80.30 201.90 L 78.20 200.70 L 76.60 200.70 L 75.10 200.90 L 72.60 202.50 L 71.10 205.10 L 70.40 208.50 L 68.50 222.90 L 66.80 226.30 L 63.20 229.40 L 62.90 230.30 L 63.50 232.90 L 65.60 235.80 L 68.90 238.10 L 73.20 239.40 L 75.60 239.50 L 78.30 239.00 L 81.80 237.80 L 84.30 236.40 L 86.00 235.00 L 87.40 233.20 L 88.40 231.30 L 89.00 229.20 L 89.20 225.80 L 88.80 220.10 L 87.80 218.30 L 86.80 217.50 L 83.20 216.20 L 82.20 215.30 L 81.30 213.60 L 80.90 212.20 L 81.10 209.20 Z" fill="url(#未命名的渐变_13-4)" fill-rule="nonzero" node-id="386" stroke="none" target-height="38.800003" target-width="26.299995" target-x="62.9" target-y="200.7"></path><path d="M 75.70 231.80 L 77.40 230.40 L 78.80 228.50 L 80.50 224.10 L 80.00 226.50 L 79.20 228.80 L 78.00 230.90 L 76.20 232.60 Z" fill="url(#未命名的渐变_13-5)" fill-rule="nonzero" node-id="388" stroke="none" target-height="8.5" target-width="4.800003" target-x="75.7" target-y="224.1"></path><path d="M 75.70 217.60 L 74.80 222.60 L 74.70 225.20 L 75.00 227.10 L 76.80 232.60 L 77.40 236.50 L 76.60 248.20 L 75.80 248.30 L 75.70 244.30 L 76.30 236.60 L 75.90 232.90 L 74.30 227.30 L 74.20 225.30 L 74.80 220.10 L 75.70 217.60 Z" fill="url(#未命名的渐变_13-6)" fill-rule="nonzero" node-id="390" stroke="none" target-height="30.699997" target-width="3.2000046" target-x="74.2" target-y="217.6"></path><path d="M 57.20 222.60 L 57.40 219.50 L 56.40 217.70 L 55.30 217.20 L 53.80 217.20 L 52.50 217.70 L 51.40 218.60 L 50.70 220.00 L 50.30 222.20 L 49.10 231.40 L 48.40 232.90 L 47.40 234.20 L 45.70 235.60 L 45.50 236.20 L 46.10 238.30 L 47.20 239.70 L 48.70 240.90 L 52.10 242.10 L 55.40 241.80 L 57.60 241.00 L 60.40 239.20 L 61.30 238.10 L 62.30 235.50 L 62.30 230.70 L 61.50 228.40 L 57.90 226.50 L 57.30 225.50 L 57.00 224.00 L 57.20 222.60 Z" fill="url(#未命名的渐变_13-7)" fill-rule="nonzero" node-id="392" stroke="none" target-height="24.90001" target-width="16.8" target-x="45.5" target-y="217.2"></path><path d="M 53.70 237.20 L 55.70 235.10 L 56.80 232.20 L 56.00 235.20 L 54.00 237.70 Z" fill="url(#未命名的渐变_13-8)" fill-rule="nonzero" node-id="394" stroke="none" target-height="5.5" target-width="3.0999985" target-x="53.7" target-y="232.2"></path><path d="M 53.70 228.00 L 53.20 230.40 L 53.10 232.90 L 54.80 240.20 L 54.30 247.60 L 53.70 247.70 L 54.10 240.20 L 52.70 232.90 L 53.00 230.40 L 53.70 228.00 Z" fill="url(#未命名的渐变_13-9)" fill-rule="nonzero" node-id="396" stroke="none" target-height="19.699997" target-width="2.0999985" target-x="52.7" target-y="228"></path><path d="M 277.30 173.30 L 276.10 173.40 L 275.60 170.90 L 273.90 169.20 L 271.60 168.50 L 269.20 169.20 L 267.60 170.90 L 267.00 173.30 L 265.70 173.70 L 263.80 175.40 L 263.30 176.60 L 263.10 178.00 L 264.00 180.40 L 264.90 181.40 L 267.40 182.30 L 269.90 181.70 L 272.20 182.10 L 274.40 181.40 L 275.70 182.10 L 277.20 182.40 L 279.50 181.70 L 281.20 180.10 L 281.60 179.00 L 281.60 176.60 L 281.20 175.50 L 279.50 173.90 L 277.20 173.30 Z" fill="url(#未命名的渐变_37)" fill-rule="nonzero" node-id="398" stroke="none" target-height="13.899994" target-width="18.5" target-x="263.1" target-y="168.5"></path><path d="M 282.50 178.40 L 282.10 178.50 L 281.90 177.40 L 281.20 176.70 L 280.20 176.40 L 279.30 176.70 L 278.60 177.40 L 278.40 178.40 L 277.70 178.70 L 276.90 179.70 L 276.80 180.40 L 277.40 181.60 L 278.60 182.10 L 281.40 181.70 L 282.50 182.10 L 283.50 181.90 L 284.20 181.20 L 284.50 180.20 L 284.20 179.30 L 283.50 178.60 L 282.50 178.40 Z" fill="url(#未命名的渐变_37-2)" fill-rule="nonzero" node-id="400" stroke="none" target-height="5.700012" target-width="7.700012" target-x="276.8" target-y="176.4"></path><path d="M 198.20 225.10 L 192.90 225.70 L 190.30 225.50 L 187.70 224.90 L 193.50 218.70 L 195.80 214.70 L 196.00 214.20 L 194.20 210.50 L 193.60 214.00 L 191.90 217.80 L 189.50 221.40 L 187.20 224.10 L 186.70 220.40 L 185.40 215.90 L 183.40 211.60 L 180.80 207.80 L 179.40 209.60 L 181.90 212.50 L 184.10 216.40 L 185.60 220.70 L 186.40 224.50 L 183.60 223.80 L 180.70 223.50 L 175.60 223.60 L 175.60 225.00 L 180.70 224.40 L 183.50 224.60 L 186.40 225.40 L 181.30 231.00 L 178.00 236.40 L 179.20 238.70 L 180.60 235.10 L 182.40 231.70 L 186.40 226.30 L 186.40 230.90 L 187.20 238.00 L 188.80 242.60 L 190.20 244.40 L 191.80 243.50 L 190.30 241.90 L 188.50 237.70 L 187.50 230.70 L 187.40 225.70 L 192.90 226.80 L 196.10 226.80 L 198.30 226.60 L 198.20 225.10 Z" fill="#d8d8d8" fill-rule="nonzero" node-id="402" stroke="none" target-height="36.59999" target-width="22.699997" target-x="175.6" target-y="207.8"></path><path d="M 128.20 203.90 L 123.50 204.40 L 118.80 203.70 L 123.90 198.30 L 126.00 194.70 L 126.20 194.20 L 124.50 191.00 L 124.00 194.00 L 122.50 197.40 L 120.30 200.60 L 118.20 202.90 L 117.70 199.70 L 116.60 195.70 L 114.80 191.90 L 112.50 188.60 L 111.20 190.20 L 113.50 192.70 L 115.50 196.20 L 116.80 199.90 L 117.60 203.40 L 112.40 202.50 L 107.80 202.60 L 107.80 203.70 L 112.40 203.30 L 114.90 203.40 L 117.50 204.10 L 112.90 209.00 L 109.90 213.90 L 111.10 215.80 L 112.20 212.60 L 113.90 209.70 L 117.50 204.90 L 117.50 208.90 L 118.20 215.20 L 119.70 219.20 L 120.90 220.80 L 122.30 220.00 L 121.00 218.60 L 119.40 214.90 L 118.40 208.70 L 118.40 204.30 L 120.90 205.00 L 126.30 205.30 L 128.30 205.10 L 128.20 203.90 Z" fill="#d8d8d8" fill-rule="nonzero" node-id="404" stroke="none" target-height="32.199997" target-width="20.5" target-x="107.8" target-y="188.6"></path><g node-id="442"><path d="M 191.90 225.50 L 191.60 228.50 L 190.70 231.10 L 189.70 232.40 L 188.50 233.20 L 187.30 233.50 L 186.00 233.30 L 184.90 232.70 L 183.70 231.40 L 183.00 230.30 L 182.10 227.50 L 182.00 224.50 L 182.60 221.70 L 184.20 219.10 L 185.30 218.30 L 186.50 218.00 L 187.80 218.20 L 189.00 218.90 L 190.10 220.10 L 191.30 222.60 L 191.90 225.50 Z" fill="#c6c5cc" fill-rule="nonzero" group-id="11" node-id="408" stroke="none" target-height="15.5" target-width="9.899994" target-x="182" target-y="218"></path></g><g node-id="443"><path d="M 120.80 203.30 L 120.70 205.80 L 120.10 207.80 L 118.70 209.50 L 117.20 209.60 L 116.40 209.10 L 115.60 208.00 L 114.80 206.10 L 114.50 203.60 L 114.60 201.20 L 115.20 199.10 L 116.60 197.40 L 118.10 197.30 L 119.70 198.90 L 120.50 200.90 L 120.80 203.30 Z" fill="#c6c5cc" fill-rule="nonzero" group-id="12" node-id="413" stroke="none" target-height="12.300003" target-width="6.300003" target-x="114.5" target-y="197.3"></path></g><path d="M 210.40 157.90 L 226.00 154.90 L 226.00 76.30 L 210.40 79.30 L 210.40 157.90 Z" fill="url(#未命名的渐变_13-10)" fill-rule="nonzero" node-id="416" stroke="none" target-height="81.59999" target-width="15.600006" target-x="210.4" target-y="76.3"></path><path d="M 242.30 73.10 L 229.20 75.60 L 229.20 154.30 L 242.30 151.80 L 242.30 73.10 Z" fill="url(#未命名的渐变_13-11)" fill-rule="nonzero" node-id="418" stroke="none" target-height="81.200005" target-width="13.100006" target-x="229.2" target-y="73.1"></path><path d="M 207.20 79.90 L 191.80 82.90 L 191.80 161.50 L 207.20 158.60 L 207.20 79.90 Z" fill="url(#未命名的渐变_13-12)" fill-rule="nonzero" node-id="420" stroke="none" target-height="81.6" target-width="15.399994" target-x="191.8" target-y="79.9"></path><path d="M 245.50 72.50 L 245.50 151.10 L 249.80 150.30 L 265.60 68.60 L 245.50 72.50 Z" fill="url(#未命名的渐变_13-13)" fill-rule="nonzero" node-id="422" stroke="none" target-height="82.50001" target-width="20.100006" target-x="245.5" target-y="68.6"></path><path d="M 175.50 79.60 L 158.80 76.20 L 158.80 150.30 L 175.50 156.00 L 175.50 79.60 Z" fill="url(#未命名的渐变_13-14)" fill-rule="nonzero" node-id="424" stroke="none" target-height="79.8" target-width="16.699997" target-x="158.8" target-y="76.2"></path><path d="M 140.70 144.10 L 155.60 149.20 L 155.60 75.50 L 140.70 72.40 L 140.70 144.10 Z" fill="url(#未命名的渐变_13-15)" fill-rule="nonzero" node-id="426" stroke="none" target-height="76.799995" target-width="14.900009" target-x="140.7" target-y="72.4"></path><path d="M 178.70 80.20 L 178.70 157.10 L 191.80 161.50 L 191.80 82.90 L 178.70 80.20 Z" fill="url(#未命名的渐变_13-16)" fill-rule="nonzero" node-id="428" stroke="none" target-height="81.3" target-width="13.100006" target-x="178.7" target-y="80.2"></path><path d="M 137.40 71.80 L 112.80 66.70 L 132.20 141.30 L 137.40 143.00 L 137.40 71.80 Z" fill="url(#未命名的渐变_13-17)" fill-rule="nonzero" node-id="430" stroke="none" target-height="76.3" target-width="24.59999" target-x="112.8" target-y="66.7"></path></svg>